<svg xmlns="http://www.w3.org/2000/svg" width="20" height="20" display="inline-block" viewBox="0 0 20 20"
    stroke-width="1.8" fill="none" stroke="currentColor" class="">
    <path
        d="M7.04086 11.6585C7.19919 12.4335 7.53251 13.1669 8.01584 13.8002C8.50751 14.4335 9.13251 14.9419 9.86584 15.2919C10.5825 15.6419 11.3825 15.8335 12.1825 15.8335C12.9825 15.8335 13.7825 15.6585 14.5075 15.3169C14.6742 15.2335 14.8658 15.2085 15.0408 15.2502L16.8575 15.6836C16.9242 15.7002 16.9908 15.7002 17.0575 15.6836C17.1242 15.6669 17.1825 15.6336 17.2325 15.5836C17.2825 15.5336 17.3075 15.4752 17.3242 15.4169C17.3492 15.3502 17.3492 15.2835 17.3242 15.2252L16.8908 13.4419C16.8492 13.2669 16.8659 13.0752 16.9575 12.9169C17.3242 12.1752 17.4992 11.3586 17.4825 10.5336C17.4575 9.70856 17.2492 8.90021 16.8408 8.17521C16.4492 7.45021 15.8742 6.83356 15.1825 6.36689C14.4908 5.90022 13.6992 5.60855 12.8658 5.50022C12.0408 5.40022 11.1908 5.49189 10.4075 5.76689C9.62417 6.04189 8.91586 6.50854 8.34086 7.10854C7.77419 7.70854 7.3575 8.44187 7.12417 9.23353C6.89917 10.0252 6.86585 10.8585 7.03252 11.6669L7.04086 11.6585Z"
        stroke="currentColor" stroke-width="1.8" stroke-linecap="round" stroke-linejoin="round"></path>
    <path
        d="M10.4589 5.74961C9.92552 5.12461 9.21719 4.65794 8.43386 4.39127C7.65053 4.1246 6.79219 4.09129 5.98386 4.28296C5.16719 4.46629 4.42553 4.87462 3.83387 5.44962C3.2422 6.02462 2.82552 6.74961 2.62552 7.54961C2.38386 8.51628 2.47553 9.54129 2.8922 10.4496C3.00053 10.658 3.02553 10.8996 2.96719 11.1246L2.49219 13.0663L4.46718 12.5996C4.70052 12.5413 4.95053 12.5746 5.15886 12.6746C5.7422 12.9329 6.37554 13.0663 7.01721 13.0663H7.50053"
        stroke="currentColor" stroke-width="1.8" stroke-linecap="round" stroke-linejoin="round"></path>
</svg>