<?xml version="1.0" encoding="utf-8"?>
<svg viewBox="0 0 500 500" width="500px" height="500px" xmlns="http://www.w3.org/2000/svg"
    xmlns:bx="https://boxy-svg.com">
    <defs>
        <bx:export>
            <bx:file format="svg" excluded="true" />
            <bx:file format="svg" path="Untitled 2.svg" excluded="true" />
            <bx:file format="svg" path="Untitled 3.svg" />
        </bx:export>
    </defs>
    <path d="M 60.961 350.031 L 443.278 351.886 L 490.839 430.008 L 13.4 430.008 L 60.839 350.008 L 60.961 350.031 Z"
        style="stroke: rgb(0, 0, 0); stroke-width: 8; fill: rgba(0, 0, 0, 0);" />
    <path d="M 111.319 259.411 L 390.182 257 L 435.926 337 L 67.731 335.143 L 111.225 259.39 L 111.319 259.411 Z"
        style="stroke: rgb(0, 0, 0); stroke-width: 8; fill: rgba(0, 0, 0, 0);" />
    <path
        d="M 77.797 217.793 L 440.834 214.742 L 499.349 314.524 L 20.161 314.524 L 77.376 217.699 Z M 77.691 218.793 L 77.868 218.833 L 21.913 313.524 L 497.603 313.524 L 440.264 215.746 Z"
        style="fill: none;" />
    <path
        d="M 77.797 217.793 L 440.834 214.742 L 499.349 314.524 L 20.161 314.524 L 77.376 217.699 Z M 77.691 218.793 L 77.868 218.833 L 21.913 313.524 L 497.603 313.524 L 440.264 215.746 Z"
        style="fill: none;" />
    <path d="M 166.691 165.191 L 335.451 164 L 379.829 240.951 L 120.781 242.143 L 166.625 165.171 L 166.691 165.191 Z"
        style="stroke: rgb(0, 0, 0); stroke-width: 8; fill: rgba(0, 0, 0, 0);" />
    <path d="M 252.245 24.048 L 251.701 22.829 L 326.475 149.78 L 174.744 151 L 251.596 23.419 L 252.245 24.048 Z"
        style="stroke: rgb(0, 0, 0); stroke-width: 8;" />
    <path
        d="M 300.842 70.496 L 327.165 150.274 L 174.043 151.506 L 201.309 71.49 L 201.753 71.718 Z M 201.517 72.72 L 201.883 72.908 L 175.445 150.494 L 325.785 149.286 L 300.122 71.504 Z"
        style="fill: none;" />
</svg>