<?xml version="1.0" encoding="iso-8859-1"?>
<!-- Uploaded to: SVG Repo, www.svgrepo.com, Generator: SVG Repo Mixer Tools -->
<svg fill="#000000" height="800px" width="800px" version="1.1" id="Layer_1" xmlns="http://www.w3.org/2000/svg" xmlns:xlink="http://www.w3.org/1999/xlink" 
	 viewBox="0 0 512 512" xml:space="preserve">
<g transform="translate(1 1)">
	<g>
		<g>
			<path d="M352.28,365.933c-45.972,0-80.084-11.844-87.928-18.062c-0.417-1.934-1.366-3.505-2.682-4.639
				c-1.584-1.857-3.952-2.899-6.67-2.899c-4.267,0-7.68,3.413-8.533,6.827c-5.973,5.973-41.813,18.773-88.747,18.773
				c-3.413,0-6.827,2.56-7.68,5.973c-0.853,3.413,0,6.827,2.56,9.387c28.16,23.893,65.707,35.84,102.4,35.84
				c36.693,0,74.24-11.947,102.4-35.84c2.56-2.56,3.413-5.973,2.56-9.387C359.107,368.493,355.693,365.933,352.28,365.933z
				 M255.383,362.78c5.14,3.547,12.024,6.679,20.005,9.36c-12.647,3.169-28.378,3.098-40.867-0.233
				C242.005,369.412,249.478,366.106,255.383,362.78z M183.32,382.147c8.072-0.978,16.282-2.239,24.212-3.758
				c11.303,8.095,28.657,13.144,47.468,13.144c18.364,0,35.341-4.812,47.884-12.572c7.768,1.391,15.816,2.46,23.796,3.186
				C283.16,406.893,226.84,406.893,183.32,382.147z"/>
			<path d="M294.253,435.907c-4.267-2.56-9.387-1.707-11.947,2.56c-5.12,7.68-15.36,12.8-27.307,12.8s-22.187-5.12-26.453-12.8
				c-2.56-4.267-7.68-5.973-11.947-3.413s-5.973,7.68-3.413,11.947c7.68,12.8,23.893,21.333,41.813,21.333
				c17.92,0,33.28-8.533,41.813-20.48C299.373,443.587,298.52,438.467,294.253,435.907z"/>
			<path d="M511,186.733c0-29.279-18.683-54.404-44.714-64.05C453.642,82.972,382.757-1,263.533-1
				C152.487-1,95.342,95.231,81.115,123.163L59.587,127c-15.36,2.56-26.453,16.213-26.453,32.427v28.16
				c0,6.454,1.698,12.566,4.874,17.701C15.685,210.796-1,231.039-1,255c0,28.16,23.04,51.2,51.2,51.2c0.019,0,0.037,0,0.056,0
				c-0.864,61.724,13.918,134.951,80.157,169.813c4.267,1.707,8.533,0.853,11.093-2.56c0,0,0.853-1.707,2.56-4.267
				C157.72,487.96,187.587,511,254.147,511c67.413,0,97.28-23.893,114.347-43.52c1.707,3.413,3.413,5.973,3.413,5.973
				c2.56,3.413,7.68,4.267,11.093,2.56c66.346-35.051,81.273-107.747,80.139-169.935C489.757,304.34,511,282.003,511,254.147
				c0-11.007-3.887-22.01-10.757-30.781C507.037,212.762,511,200.192,511,186.733z M254.999,289.133
				c-7.68-0.001-17.066-18.774-17.066-25.6c0-3.413,6.827-8.533,17.067-8.533s17.067,5.12,17.067,8.533
				c0,6.826-9.386,25.599-17.066,25.6C255,289.133,255,289.133,254.999,289.133z M255,237.933c-18.773,0-34.133,11.093-34.133,25.6
				c0,6.482,4.026,18.484,10.974,28.114c-13.209,3.751-24.842,11.538-33.16,22.233c-9.387,11.947-25.6,18.773-42.667,17.92
				c-24.747-0.853-45.227-18.773-45.227-38.4c0-4.267,0-7.68,1.707-11.093c9.401-26.636,15.913-50.393,18.239-73.256l24.427-4.397
				c66.56-11.947,133.973-11.947,199.68,0l23.38,4.294c1.084,3.124,2.388,6.145,3.896,9.047
				c2.542,20.501,8.822,41.742,17.097,64.312c0.853,3.413,1.707,7.68,1.707,11.093c0,19.627-20.48,37.547-45.227,38.4
				c-17.067,0-33.28-5.973-42.667-17.92c-9.256-11.107-21.199-18.623-34.841-22.268c6.932-9.624,10.948-21.605,10.948-28.078
				C289.133,249.027,273.773,237.933,255,237.933z M493.933,186.733c0,9.59-2.677,18.583-7.313,26.278l-4.633,5.295
				c-9.387,11.093-23.04,17.92-37.547,18.773l-4.834,0.439c-18.564-2.321-34.362-14.421-41.246-32.013
				c-0.95-2.376-2.696-3.956-4.792-4.744l-0.328-1.229c-0.743-3.714-1.484-7.427-1.664-11.141c-0.018-0.552-0.042-1.103-0.042-1.659
				c0-0.775,0.024-1.545,0.059-2.312c0.015-0.32,0.036-0.639,0.057-0.958c0.026-0.399,0.057-0.797,0.091-1.193
				c0.042-0.463,0.084-0.925,0.139-1.385c0.01-0.083,0.022-0.166,0.032-0.249c2.324-18.756,15.252-34.751,33.755-41.689l5.7-2.117
				c3.661-0.838,7.462-1.296,11.367-1.296C470.893,135.533,493.933,158.573,493.933,186.733z M263.533,16.067
				c99.84,0,163.84,64.853,182.613,102.4c-0.004,0-0.007,0-0.011,0c-11.089-10.749-56.408-51.2-114.336-51.2
				c-5.12,0-8.533,3.413-8.533,8.533s3.413,8.533,8.533,8.533c39.814,0,74.002,22.496,91.818,36.894
				c-0.618,0.182-1.235,0.368-1.846,0.566L365.08,111.64c-36.337-6.84-73.102-10.252-109.867-10.239
				c-0.071,0-0.142-0.001-0.213-0.001c-36.693,0-73.387,3.413-110.08,10.24l-42.667,7.68
				C122.733,85.187,173.933,16.067,263.533,16.067z M50.2,159.427c0-7.68,5.12-14.507,11.947-15.36l9.419-1.772l-0.033,0.065
				l4.978-0.996l71.822-13.511c34.987-5.973,70.827-9.387,106.667-9.387c35.84,0,71.68,3.413,107.52,10.24l35.47,6.599
				c-14.384,12.54-23.523,30.963-23.523,51.428c0,1.68,0.083,3.34,0.204,4.99l-16.417-3.283c-68.267-12.8-137.387-12.8-205.653,0
				L67.267,203.8c-4.267,0.853-7.68-0.853-11.093-3.413c-4.267-3.413-5.973-7.68-5.973-12.8V159.427z M16.067,255
				c0-18.773,15.36-34.133,34.133-34.133c3.285,0,6.571,0.791,9.856,1.611c-3.329,15.479-7.562,39.333-9.175,66.651
				C31.337,289.039,16.067,273.718,16.067,255z M378.733,456.387c-0.853-3.413-2.56-7.68-2.56-13.653
				c0-4.267-3.413-8.533-7.68-8.533c-5.12,0-8.533,3.413-9.387,7.68c-0.853,0-8.533,52.053-104.96,52.053
				c-94.72,0-103.253-50.347-103.253-52.053c-0.853-4.267-4.267-7.68-8.533-7.68c-5.12,0-8.533,4.267-7.68,7.68
				c0,5.12-1.707,10.24-2.56,13.653c-88.734-54.605-62.301-197.079-52.911-237.209l34.915-6.285
				c-2.598,20.294-8.535,40.61-16.991,63.44c-2.56,5.12-3.413,10.24-3.413,16.213c0,29.867,27.307,54.613,61.44,56.32
				c22.187,0.853,43.52-7.68,56.32-23.893c9.252-11.775,22.652-18.562,37.742-18.755c1.858,0.536,3.784,0.835,5.778,0.835
				c2.014,0,3.959-0.306,5.834-0.853c0.045,0,0.094,0,0.139,0c15.36,0.853,29.013,7.68,38.4,18.773
				c12.8,16.213,33.28,24.747,56.32,23.893c34.133-1.707,61.44-26.453,61.44-56.32c0-5.973-1.707-11.947-3.413-17.067
				c-4.054-10.541-8.091-21.844-10.681-32.462c10.144,7.297,22.341,11.89,35.525,12.695
				C447.018,315.5,449.285,413.036,378.733,456.387z M462.427,288.967c-0.811-12.684-2.194-24.69-3.816-35.565
				c10.903-2.871,21.622-8.522,30.202-16.322c3.413,5.12,5.12,11.093,5.12,17.92C493.933,272.648,480.359,287.276,462.427,288.967z"
				/>
			<path d="M173.933,220.867c-16.213,0-29.867,11.093-29.867,25.6c0,5.12,3.413,8.533,8.533,8.533c5.12,0,8.533-3.413,8.533-8.533
				c0-4.267,5.973-8.533,12.8-8.533s12.8,4.267,12.8,8.533c0,5.12,3.413,8.533,8.533,8.533s8.533-3.413,8.533-8.533
				C203.8,231.96,190.147,220.867,173.933,220.867z"/>
			<path d="M314.733,255c5.12,0,8.533-3.413,8.533-8.533c0-4.267,5.973-8.533,12.8-8.533s12.8,4.267,12.8,8.533
				c0,5.12,3.413,8.533,8.533,8.533s8.533-3.413,8.533-8.533c0-14.507-13.653-25.6-29.867-25.6c-16.213,0-29.867,11.093-29.867,25.6
				C306.2,251.587,309.613,255,314.733,255z"/>
		</g>
	</g>
</g>
</svg>